# xmcd
#
# Track frame offsets:
#   150
#   16833
#   35030
#   50705
#   70473
#   85968
#   104337
#   124369
#   140770
#   157699
#   172035
#   187244
#   209884
#   229933
#   250216
#
# Disc length: 3573 seconds
#
# Revision: 0
# Processed by: cddbd v1.5.1PL0 Copyright (c) Steve Scherf et al.
# Submitted via: Media_Universe 3.0
#
DISCID=e80df30f
DTITLE=She Daisy - She Daisy
DYEAR=1900
DGENRE=Country
TTITLE0=I Will But........
TTITLE1=Multiple Personalities
TTITLE2=Passenger Seat
TTITLE3=Still Holding Out For You
TTITLE4=This Woman Needs
TTITLE5=Come Home Soon
TTITLE6=The First To Let Go
TTITLE7=Almost Always
TTITLE8=Cause I Like It That Way
TTITLE9=Ever Kiss Before This 
TTITLE10=Little Goodbyes
TTITLE11=Man Goin Down
TTITLE12=I Did It All For You
TTITLE13=I Wish I Were The Rain
TTITLE14=Mine All Mine
EXTD=
EXTT0=
EXTT1=
EXTT2=
EXTT3=
EXTT4=
EXTT5=
EXTT6=
EXTT7=
EXTT8=
EXTT9=
EXTT10=
EXTT11=
EXTT12=
EXTT13=
EXTT14=
PLAYORDER=
